<svg width="1000" height="1000" viewBox="0 0 1000 1000" fill="none" xmlns="http://www.w3.org/2000/svg">
<rect width="1000" height="1000" fill="#FFFFFF"/>
<g clip-path="url(#clip0_903_100)">
<path d="M712.103 514.835H290.981C276.47 514.835 264.706 526.599 264.706 541.11V588.142C264.706 602.654 276.47 614.417 290.981 614.417H712.103C726.614 614.417 738.378 602.654 738.378 588.142V541.11C738.378 526.599 726.614 514.835 712.103 514.835Z" fill="#00C3F7"/>
<path d="M738.431 384.129H290.981C276.47 384.129 264.706 395.893 264.706 410.404V457.436C264.706 471.947 276.47 483.711 290.981 483.711H738.431C752.942 483.711 764.706 471.947 764.706 457.436V410.404C764.706 395.893 752.942 384.129 738.431 384.129Z" fill="#00C3F7"/>
<path d="M712.103 253.425H290.981C276.47 253.425 264.706 265.189 264.706 279.7V326.732C264.706 341.244 276.47 353.007 290.981 353.007H712.103C726.614 353.007 738.378 341.244 738.378 326.732V279.7C738.378 265.189 726.614 253.425 712.103 253.425Z" fill="#00C3F7"/>
<path d="M528.339 645.514H290.981C276.47 645.514 264.706 657.277 264.706 671.789V718.821C264.706 733.332 276.47 745.096 290.981 745.096H528.339C542.85 745.096 554.614 733.332 554.614 718.821V671.789C554.614 657.277 542.85 645.514 528.339 645.514Z" fill="#00C3F7"/>
</g>
<defs>
<clipPath id="clip0_903_100">
<rect width="500" height="491.67" fill="white" transform="translate(264.706 253.425)"/>
</clipPath>
</defs>
</svg>

