<svg id="Layer_1" data-name="Layer 1" xmlns="http://www.w3.org/2000/svg" width="933.51" height="454.63" viewBox="0 0 933.51 454.63">
  <defs>
    <style>
      .cls-1 {
        fill: #00c3f7;
      }

      .cls-2 {
        fill: #011b33;
      }
    </style>
  </defs>
  <g>
    <g>
      <rect class="cls-1" x="373.41" y="97.6" width="176.85" height="37.18" rx="9.81"/>
      <rect class="cls-1" x="373.41" y="48.8" width="186.68" height="37.18" rx="9.81"/>
      <rect class="cls-1" x="373.41" width="176.85" height="37.18" rx="9.81"/>
      <rect class="cls-1" x="373.41" y="146.39" width="108.24" height="37.18" rx="9.81"/>
    </g>
    <g>
      <path class="cls-2" d="M83.35,357.72A26.32,26.32,0,0,1,78,366.11a24.45,24.45,0,0,1-8,5.63,24.7,24.7,0,0,1-10.08,2,25.54,25.54,0,0,1-10-2,25,25,0,0,1-8.19-5.63,25.67,25.67,0,0,1-5.4-8.39,27.64,27.64,0,0,1-2-10.36,28,28,0,0,1,2-10.38,24.7,24.7,0,0,1,5.4-8.26A26.52,26.52,0,0,1,50,323.08a24.63,24.63,0,0,1,20,0,26.61,26.61,0,0,1,8,5.61A26,26,0,0,1,83.35,337a27.74,27.74,0,0,1,1.9,10.38,27.42,27.42,0,0,1-1.9,10.36m20.38-53.3a53,53,0,0,0-17.39-11.8,53.63,53.63,0,0,0-20.78-4.1,45,45,0,0,0-20.11,4.26A37.14,37.14,0,0,0,34.25,301v-3.13a6.24,6.24,0,0,0-1.68-4.31,5.51,5.51,0,0,0-4.3-1.89H6a5.39,5.39,0,0,0-4.29,1.89A6.13,6.13,0,0,0,0,297.82V445.35a5.93,5.93,0,0,0,1.71,4.26A5.81,5.81,0,0,0,6,451.28H28.72a5.9,5.9,0,0,0,4.11-1.67,5.55,5.55,0,0,0,1.86-4.26V395a29.53,29.53,0,0,0,11.9,7.66A53.14,53.14,0,0,0,65.08,406a55.54,55.54,0,0,0,21-4.08A52.85,52.85,0,0,0,103.73,390a56.77,56.77,0,0,0,12-18.55,68.35,68.35,0,0,0,0-48.57,55.45,55.45,0,0,0-12-18.44"/>
      <path class="cls-2" d="M211.68,357.59a26,26,0,0,1-5.3,8.43,28,28,0,0,1-8,5.64,25,25,0,0,1-20.09,0,27.47,27.47,0,0,1-8.08-5.64,25.21,25.21,0,0,1-5.32-8.43,29.06,29.06,0,0,1,0-20.62,25.77,25.77,0,0,1,5.32-8.28,26.65,26.65,0,0,1,8.08-5.63,24.75,24.75,0,0,1,20.09,0,27.38,27.38,0,0,1,8,5.63,26.92,26.92,0,0,1,5.3,8.28,28.92,28.92,0,0,1,0,20.62m30.4-66H219.56a5.86,5.86,0,0,0-4.18,1.81,6.2,6.2,0,0,0-1.8,4.4v2.7a31,31,0,0,0-10.21-7.73,43.42,43.42,0,0,0-19.73-4.27A54.94,54.94,0,0,0,145,304.38a58.13,58.13,0,0,0-12.42,18.49,65.4,65.4,0,0,0,0,48.54A60.07,60.07,0,0,0,144.85,390a54,54,0,0,0,38.57,16,44.87,44.87,0,0,0,19.82-4.24A32.64,32.64,0,0,0,213.58,394v2.93a5.5,5.5,0,0,0,1.84,4.25,5.92,5.92,0,0,0,4.14,1.72h22.52a5.92,5.92,0,0,0,6-6V297.82a6.13,6.13,0,0,0-1.69-4.32,5.48,5.48,0,0,0-4.27-1.89"/>
      <path class="cls-2" d="M466.71,344.31a38,38,0,0,0-11.08-6.61,70.82,70.82,0,0,0-13.26-3.85l-17.17-3.37c-4.42-.81-7.47-1.92-9.2-3.34a5.24,5.24,0,0,1-2.3-4.34c0-1.8,1.08-3.3,3.19-4.64,2.32-1.42,5.57-2.13,9.59-2.13a33.09,33.09,0,0,1,12.82,2.58,71.36,71.36,0,0,1,11.33,5.92c5,3.08,9.26,2.65,12.31-.87l8.26-9.38a8.78,8.78,0,0,0,2.56-5.88c0-2.09-1.07-4-3.15-5.77-3.48-3-9-6.22-16.39-9.33s-16.74-4.78-27.74-4.78a65.35,65.35,0,0,0-19.76,2.84,46.9,46.9,0,0,0-15.12,7.79,35.38,35.38,0,0,0-9.66,11.73,32.24,32.24,0,0,0-3.36,14.39c0,9.21,2.84,16.71,8.39,22.33,5.56,5.47,13,9.21,22.1,11l17.83,3.81a46.38,46.38,0,0,1,11.43,3.44,5.19,5.19,0,0,1,3.23,4.9c0,2-1.06,3.74-3.21,5.33s-5.79,2.56-10.5,2.56a31.18,31.18,0,0,1-14.07-3.14A51.67,51.67,0,0,1,402.26,368a16.4,16.4,0,0,0-5.16-2.82c-2.14-.6-4.55.05-7.31,2.17l-9.87,7.56c-2.87,2.39-4.07,5.27-3.53,8.58s3.2,6.48,8.31,10.22a73.75,73.75,0,0,0,42,12.27,70.17,70.17,0,0,0,20.55-2.83,53.35,53.35,0,0,0,15.93-7.91,35.67,35.67,0,0,0,10.29-12.17,33.16,33.16,0,0,0,3.58-15.18,31.31,31.31,0,0,0-2.8-13.74,30.06,30.06,0,0,0-7.58-9.85"/>
      <path class="cls-2" d="M565.18,371.24a6.19,6.19,0,0,0-5-3.19,9.57,9.57,0,0,0-5.83,1.87,21.26,21.26,0,0,1-5.16,2.33,14.7,14.7,0,0,1-4,.61,12.75,12.75,0,0,1-3.19-.4,7.49,7.49,0,0,1-3.07-1.52,9.63,9.63,0,0,1-2.42-3.37,14.56,14.56,0,0,1-1-6V321.16h29.32a6.2,6.2,0,0,0,4.48-1.94,5.85,5.85,0,0,0,1.9-4.27V297.81a5.79,5.79,0,0,0-1.94-4.4,6.43,6.43,0,0,0-4.44-1.81H535.5V264.07a5.72,5.72,0,0,0-1.84-4.45,5.91,5.91,0,0,0-4.1-1.69H506.79a6.21,6.21,0,0,0-4.36,1.69,6,6,0,0,0-1.86,4.45V291.6h-13a5.58,5.58,0,0,0-4.32,1.91,6.34,6.34,0,0,0-1.66,4.3V315a6.46,6.46,0,0,0,1.66,4.22,5.45,5.45,0,0,0,4.32,2h13v48.1a37.31,37.31,0,0,0,3.4,16.5,32.88,32.88,0,0,0,8.71,11.11A35,35,0,0,0,525,403.26a49.28,49.28,0,0,0,14.13,2.07,56.79,56.79,0,0,0,18.49-3,36,36,0,0,0,14.59-9.06c2.58-3,2.88-6.25.78-9.56Z"/>
      <path class="cls-2" d="M658.18,357.59a25.08,25.08,0,0,1-5.3,8.43,27.22,27.22,0,0,1-8,5.64,23.93,23.93,0,0,1-10.06,2.11,24.5,24.5,0,0,1-10-2.11,27.21,27.21,0,0,1-8.08-5.64,25.27,25.27,0,0,1-5.35-8.43,29.5,29.5,0,0,1,0-20.62,25.85,25.85,0,0,1,5.35-8.28,26.65,26.65,0,0,1,8.08-5.63,24.19,24.19,0,0,1,10-2.13,23.63,23.63,0,0,1,10.06,2.13,26.65,26.65,0,0,1,8,5.63,25.86,25.86,0,0,1,5.3,8.28,28,28,0,0,1,0,20.62m30.41-66h-22.5a5.88,5.88,0,0,0-4.15,1.81,6.14,6.14,0,0,0-1.79,4.4v2.7a31.74,31.74,0,0,0-10.25-7.73,43.37,43.37,0,0,0-19.78-4.27,55,55,0,0,0-38.6,15.86,57.53,57.53,0,0,0-12.44,18.49,65.27,65.27,0,0,0,0,48.54A59.72,59.72,0,0,0,591.39,390a53.95,53.95,0,0,0,38.5,16,45,45,0,0,0,19.89-4.24A32.78,32.78,0,0,0,660.15,394v2.93a5.51,5.51,0,0,0,1.81,4.25,5.91,5.91,0,0,0,4.13,1.72h22.5a5.87,5.87,0,0,0,6-6V297.82a6,6,0,0,0-1.69-4.32,5.38,5.38,0,0,0-4.28-1.89"/>
      <path class="cls-2" d="M812.27,369.76,799.35,360c-2.45-1.94-4.8-2.48-6.83-1.66a12.64,12.64,0,0,0-4.73,3.38,42.18,42.18,0,0,1-9.86,8.8c-3.26,2-7.52,3-12.57,3a25.07,25.07,0,0,1-10.16-2,24,24,0,0,1-7.94-5.63,26.21,26.21,0,0,1-5.22-8.38,28.79,28.79,0,0,1-1.8-10.16A29.17,29.17,0,0,1,742,337a24,24,0,0,1,5.22-8.29,26.89,26.89,0,0,1,8-5.62,23.69,23.69,0,0,1,10.1-2.13A24,24,0,0,1,777.93,324a43.06,43.06,0,0,1,9.89,8.79,12.31,12.31,0,0,0,4.7,3.38c2.07.8,4.38.28,6.78-1.66l12.9-9.77a8.64,8.64,0,0,0,3.42-4.41,7.08,7.08,0,0,0-.58-6,55.83,55.83,0,0,0-20-18.53c-8.55-4.79-18.77-7.26-30.21-7.26a60.51,60.51,0,0,0-23.43,4.55,59.35,59.35,0,0,0-19.06,12.46,55.46,55.46,0,0,0-12.66,18.69,60.33,60.33,0,0,0,0,46.21A56.64,56.64,0,0,0,722.37,389a60.59,60.59,0,0,0,42.49,17c11.44,0,21.66-2.45,30.21-7.29a55.35,55.35,0,0,0,20-18.6,6.83,6.83,0,0,0,.53-5.83,10.34,10.34,0,0,0-3.35-4.5"/>
      <path class="cls-2" d="M932.2,392.85l-35.63-51.69,30.49-39.72c1.58-2.29,2-4.5,1.25-6.54-.54-1.51-2-3.3-5.64-3.3H898.56a9.17,9.17,0,0,0-4,1,8.11,8.11,0,0,0-3.53,3.37l-24.37,33.68h-5.94V250.06a6,6,0,0,0-1.67-4.28,6,6,0,0,0-4.27-1.71H832.28a6.33,6.33,0,0,0-4.32,1.69,5.57,5.57,0,0,0-1.85,4.3V396.91a5.5,5.5,0,0,0,1.85,4.25,6.13,6.13,0,0,0,4.32,1.71h22.53a5.74,5.74,0,0,0,4.27-1.74,5.8,5.8,0,0,0,1.67-4.22V358h6.54l26.59,40.23a8.83,8.83,0,0,0,7.79,4.63h25.24c3.84,0,5.44-1.8,6.07-3.32a7,7,0,0,0-.78-6.7"/>
      <path class="cls-2" d="M370.16,291.61H344.92a6.68,6.68,0,0,0-5,2,8.91,8.91,0,0,0-2.21,4.1l-18.6,68.56h-4.54l-20-68.53a10.76,10.76,0,0,0-1.9-4.06,5.5,5.5,0,0,0-4.5-2.06H262c-3.39,0-5.5,1.07-6.29,3.16a9.34,9.34,0,0,0,0,6.1l31.95,96.47a8.94,8.94,0,0,0,2.45,3.82,6.64,6.64,0,0,0,4.75,1.71h13.5l-1.1,3.12L304,415a14.59,14.59,0,0,1-4.93,7,12,12,0,0,1-7.46,2.43,16.63,16.63,0,0,1-6.77-1.47,31.14,31.14,0,0,1-5.93-3.45,10.87,10.87,0,0,0-5.68-1.88H273c-2.2,0-4.09,1.2-5.66,3.54l-8,11.63c-3.28,5-1.47,8.32.62,10.13a42.14,42.14,0,0,0,14.86,8.64,57.58,57.58,0,0,0,19,3.06c11.55,0,21.2-3.09,28.62-9.31s12.79-14.59,16.1-25.08L375.6,300.87a8.81,8.81,0,0,0,.08-6.4c-.62-1.3-2.12-2.86-5.52-2.86"/>
    </g>
  </g>
</svg>
