<?xml version="1.0" encoding="UTF-8"?>
<svg id="Layer_1" data-name="Layer 1" xmlns="http://www.w3.org/2000/svg" viewBox="0 0 1978.73 742.02">
  <defs>
    <style>
      .cls-1 {
        fill: #001430;
      }

      .cls-2 {
        fill: #fff;
      }
    </style>
  </defs>
  <g>
    <rect class="cls-1" x="176.36" y="197.48" width="357.04" height="366.92" rx="39.74" ry="39.74"/>
    <g>
      <rect class="cls-2" x="245.34" y="387.77" width="207.54" height="43.63" rx="11.51" ry="11.51"/>
      <rect class="cls-2" x="245.34" y="330.5" width="219.08" height="43.63" rx="11.51" ry="11.51"/>
      <rect class="cls-2" x="245.34" y="273.23" width="207.54" height="43.63" rx="11.51" ry="11.51"/>
      <rect class="cls-2" x="245.34" y="445.03" width="127.02" height="43.63" rx="11.51" ry="11.51"/>
    </g>
  </g>
  <g>
    <g>
      <path class="cls-1" d="M747.5,318.31c-1.52,3.85-3.76,7.38-6.6,10.39-5.76,6.16-13.85,9.61-22.28,9.5-12.94.07-24.59-7.83-29.3-19.88-1.64-4.08-2.48-8.43-2.48-12.83,0-4.4.84-8.76,2.48-12.85,1.52-3.82,3.79-7.3,6.69-10.23,2.93-2.95,6.4-5.32,10.21-6.98,7.88-3.5,16.88-3.5,24.76,0,3.7,1.69,7.06,4.05,9.9,6.96,2.84,2.96,5.09,6.44,6.62,10.25,1.6,4.09,2.4,8.46,2.35,12.85.05,4.39-.75,8.74-2.35,12.83M772.73,252.32c-6.12-6.26-13.44-11.22-21.52-14.6-8.15-3.39-16.9-5.12-25.73-5.09-8.6-.18-17.12,1.63-24.9,5.29-5.21,2.47-9.91,5.91-13.85,10.11v-3.88c.02-1.98-.73-3.9-2.08-5.35-1.34-1.53-3.29-2.38-5.32-2.33h-27.6c-2.04-.07-3.99.79-5.32,2.33-1.37,1.44-2.13,3.36-2.1,5.35v182.62c-.03,1.97.74,3.88,2.13,5.27,1.41,1.39,3.32,2.14,5.3,2.07h28.13c1.9,0,3.73-.74,5.09-2.07,1.5-1.34,2.34-3.27,2.29-5.27v-62.35c4.07,4.31,9.12,7.57,14.73,9.48,7.33,2.73,15.08,4.13,22.9,4.14,8.91.02,17.74-1.69,26-5.05,8.19-3.39,15.61-8.41,21.8-14.76,6.41-6.62,11.45-14.42,14.86-22.98,3.8-9.56,5.68-19.77,5.52-30.06.15-10.28-1.73-20.49-5.52-30.05-3.37-8.53-8.43-16.3-14.86-22.84"/>
      <path class="cls-1" d="M906.35,318.15c-1.49,3.87-3.72,7.41-6.56,10.42-2.86,2.9-6.22,5.27-9.9,6.99-7.92,3.48-16.94,3.48-24.86,0-3.73-1.71-7.13-4.08-10.02-6.99-2.86-3-5.1-6.55-6.57-10.42-3.12-8.22-3.12-17.3,0-25.53,1.51-3.81,3.74-7.29,6.57-10.25,2.88-2.92,6.28-5.27,10.03-6.95,7.91-3.51,16.93-3.51,24.83,0,3.69,1.71,7.04,4.07,9.9,6.97,2.79,2.99,5.02,6.46,6.56,10.25,3.14,8.22,3.14,17.31,0,25.53M943.97,236.46h-27.87c-1.96.01-3.82.82-5.17,2.23-1.44,1.45-2.24,3.42-2.23,5.46v3.34c-3.51-4.03-7.81-7.28-12.64-9.56-7.61-3.66-15.98-5.47-24.43-5.29-17.92-.02-35.13,7.03-47.89,19.62-6.55,6.57-11.77,14.34-15.36,22.89-3.97,9.51-5.94,19.73-5.79,30.03-.14,10.31,1.83,20.54,5.79,30.06,3.59,8.54,8.76,16.34,15.23,22.98,12.63,12.73,29.82,19.86,47.75,19.81,8.47.15,16.87-1.65,24.54-5.26,4.86-2.32,9.21-5.58,12.8-9.59v3.62c-.05,2.01.78,3.94,2.28,5.27,1.36,1.35,3.21,2.11,5.13,2.12h27.88c4.04.06,7.37-3.16,7.43-7.2,0-.07,0-.15,0-.22v-122.6c.03-1.99-.73-3.92-2.12-5.35-1.32-1.53-3.25-2.39-5.27-2.34"/>
      <path class="cls-1" d="M1222.05,301.7c-4.07-3.49-8.71-6.26-13.72-8.17-5.29-2.13-10.78-3.73-16.38-4.78l-21.29-4.16c-5.46-1.02-9.24-2.39-11.38-4.14-1.78-1.21-2.85-3.23-2.85-5.39,0-2.23,1.32-4.09,3.95-5.74,2.86-1.75,6.88-2.62,11.86-2.62,5.45,0,10.85,1.08,15.88,3.18,4.88,2.02,9.57,4.47,14.01,7.33,6.19,3.81,11.46,3.28,15.24-1.06l10.23-11.63c1.93-1.94,3.06-4.54,3.17-7.28,0-2.59-1.32-4.95-3.9-7.13-4.31-3.71-11.14-7.7-20.29-11.56-9.15-3.86-20.72-5.92-34.34-5.92-8.28-.08-16.53,1.1-24.45,3.52-6.78,2.05-13.12,5.32-18.72,9.66-4.99,3.91-9.07,8.86-11.96,14.51-2.75,5.54-4.17,11.63-4.16,17.82,0,11.4,3.52,20.69,10.39,27.65,6.87,6.96,16.09,11.4,27.36,13.62l22.07,4.73c4.88.8,9.63,2.24,14.14,4.26,2.46.99,4.05,3.4,4,6.05,0,2.48-1.24,4.63-3.97,6.6-2.74,1.97-7.17,3.18-12.99,3.18-6.03.08-12-1.25-17.43-3.89-5.14-2.46-9.93-5.59-14.25-9.31-1.91-1.54-4.08-2.72-6.4-3.49-2.65-.74-5.62,0-9.04,2.69l-12.22,9.35c-3.55,2.96-5.04,6.52-4.37,10.63.67,4.11,3.96,8.02,10.29,12.65,6.69,4.44,13.94,7.97,21.55,10.5,8.67,3.12,18.9,4.68,30.48,4.68,8.61.1,17.18-1.08,25.44-3.5,7.08-2.13,13.74-5.43,19.72-9.78,5.32-3.99,9.68-9.13,12.74-15.04,2.95-5.82,4.47-12.26,4.43-18.78.15-5.86-1.04-11.68-3.47-17.01-2.24-4.67-5.44-8.83-9.38-12.19"/>
      <path class="cls-1" d="M1343.95,335.03c-1.26-2.28-3.59-3.76-6.19-3.95-2.59-.03-5.13.79-7.22,2.33-1.99,1.24-4.14,2.21-6.39,2.88-1.61.48-3.27.73-4.95.76-1.33,0-2.66-.16-3.95-.5-1.4-.32-2.7-.97-3.8-1.89-1.29-1.15-2.31-2.57-2.98-4.16-.94-2.36-1.36-4.89-1.24-7.43v-50.03h36.29c2.1,0,4.1-.88,5.55-2.4,1.48-1.35,2.34-3.27,2.35-5.27v-21.22c.03-2.08-.85-4.07-2.4-5.46-1.48-1.42-3.45-2.22-5.5-2.23h-36.3v-34.08c.09-2.08-.74-4.1-2.28-5.51-1.37-1.32-3.19-2.07-5.09-2.09h-28.19c-2.01-.04-3.96.71-5.42,2.09-1.5,1.44-2.32,3.44-2.28,5.51v34.08h-16.09c-2.04-.04-4,.82-5.35,2.35-1.33,1.46-2.06,3.36-2.06,5.34v21.22c.03,1.93.76,3.78,2.06,5.21,1.31,1.6,3.28,2.52,5.35,2.48h16.09v59.55c-.17,7.04,1.28,14.03,4.22,20.43,2.55,5.31,6.22,10.01,10.77,13.75,4.52,3.62,9.72,6.31,15.29,7.9,5.68,1.7,11.57,2.57,17.49,2.58,7.78.04,15.52-1.22,22.89-3.71,6.84-2.23,13.04-6.08,18.06-11.22,3.19-3.71,3.57-7.75.97-11.84l-9.71-15.46Z"/>
      <path class="cls-1" d="M1459.07,318.15c-1.46,3.88-3.7,7.43-6.56,10.42-2.85,2.91-6.2,5.28-9.9,6.99-3.92,1.76-8.16,2.65-12.45,2.61-4.26,0-8.48-.89-12.38-2.61-3.73-1.7-7.12-4.07-10-6.99-2.88-3-5.12-6.54-6.61-10.42-3.09-8.23-3.09-17.3,0-25.53,1.53-3.81,3.77-7.29,6.61-10.25,2.89-2.91,6.3-5.27,10.04-6.95,3.89-1.75,8.11-2.65,12.38-2.64,4.28-.04,8.52.86,12.42,2.64,3.7,1.7,7.06,4.06,9.9,6.97,2.82,2.97,5.04,6.45,6.56,10.25,3.25,8.2,3.25,17.33,0,25.53M1496.72,236.46h-27.86c-1.94.03-3.79.83-5.14,2.23-1.44,1.45-2.24,3.42-2.22,5.46v3.34c-3.53-4.02-7.85-7.28-12.69-9.57-7.63-3.67-16.02-5.48-24.49-5.29-17.89.01-35.06,7.07-47.79,19.64-6.57,6.56-11.8,14.33-15.4,22.89-3.96,9.51-5.92,19.73-5.77,30.03-.14,10.31,1.83,20.54,5.78,30.06,3.6,8.55,8.78,16.35,15.26,22.98,12.59,12.71,29.76,19.85,47.65,19.81,8.5.16,16.92-1.64,24.61-5.26,4.88-2.31,9.25-5.58,12.85-9.59v3.62c-.07,2,.75,3.93,2.24,5.27,1.36,1.35,3.2,2.11,5.11,2.12h27.86c4.01.09,7.34-3.09,7.43-7.1,0-.11,0-.22,0-.33v-122.6c.05-1.99-.71-3.92-2.09-5.35-1.31-1.55-3.26-2.42-5.29-2.34"/>
      <path class="cls-1" d="M1649.82,333.21l-15.98-12.11c-3.05-2.39-5.96-3.06-8.47-2.04-2.25.92-4.25,2.36-5.86,4.18-3.47,4.25-7.58,7.92-12.19,10.89-4.05,2.48-9.31,3.71-15.57,3.71-4.32.06-8.6-.79-12.58-2.48-3.72-1.63-7.06-4-9.82-6.97-2.79-3.02-4.99-6.54-6.46-10.37-2.97-8.21-2.97-17.21,0-25.42,1.42-3.84,3.62-7.33,6.46-10.28,2.85-2.9,6.21-5.26,9.9-6.96,3.93-1.78,8.19-2.68,12.5-2.62,5.44-.18,10.83,1.13,15.57,3.79,4.61,2.98,8.74,6.66,12.23,10.89,1.59,1.83,3.58,3.26,5.82,4.18,2.56.99,5.42.33,8.41-2.07l15.96-12.1c1.97-1.3,3.46-3.21,4.23-5.45.88-2.46.62-5.18-.72-7.43-6.23-9.58-14.74-17.46-24.76-22.94-10.6-5.93-23.24-8.99-37.41-8.99-9.93-.06-19.77,1.85-28.96,5.62-8.78,3.58-16.79,8.82-23.6,15.43-6.76,6.56-12.09,14.44-15.67,23.15-7.59,18.31-7.59,38.89,0,57.2,3.64,8.63,8.97,16.44,15.67,22.98,14.11,13.62,32.98,21.17,52.59,21.05,14.18,0,26.82-3.05,37.41-9.04,10.04-5.49,18.55-13.4,24.76-23.02,1.29-2.19,1.53-4.84.66-7.22-.84-2.2-2.28-4.13-4.15-5.57"/>
      <path class="cls-1" d="M1798.28,361.79l-44.11-63.98,37.75-49.16c1.94-2.84,2.48-5.58,1.55-8.11-.67-1.86-2.48-4.07-6.98-4.07h-29.85c-1.72.02-3.41.42-4.95,1.18-1.85.91-3.38,2.37-4.37,4.18l-30.17,41.68h-7.34v-98.46c.04-1.97-.71-3.88-2.08-5.3-1.39-1.38-3.28-2.15-5.24-2.13h-27.91c-1.98,0-3.89.75-5.34,2.09-1.51,1.35-2.35,3.3-2.29,5.32v181.79c-.05,2,.79,3.92,2.29,5.25,1.43,1.38,3.35,2.14,5.34,2.12h27.91c1.98.06,3.9-.73,5.27-2.15,1.37-1.38,2.13-3.26,2.08-5.21v-48.16h8.08l32.92,49.79c1.91,3.54,5.62,5.74,9.64,5.73h31.25c4.75,0,6.73-2.23,7.51-4.1,1.12-2.75.76-5.89-.97-8.31"/>
      <path class="cls-1" d="M1102.53,236.46h-31.25c-2.32-.08-4.57.82-6.19,2.48-1.35,1.42-2.3,3.18-2.75,5.09l-23.02,84.87h-5.62l-24.76-84.84c-.43-1.8-1.23-3.48-2.35-4.95-1.35-1.69-3.41-2.64-5.57-2.56h-32.36c-4.2,0-6.81,1.34-7.79,3.92-.85,2.44-.85,5.1,0,7.54l39.56,119.43c.59,1.81,1.63,3.43,3.03,4.72,1.6,1.46,3.72,2.22,5.88,2.13h16.71l-1.36,3.85-4,11.14c-1.12,3.43-3.25,6.45-6.1,8.67-2.65,2-5.9,3.06-9.22,3-2.89-.01-5.75-.63-8.38-1.82-2.59-1.15-5.06-2.58-7.34-4.26-2.08-1.43-4.51-2.24-7.03-2.34h-.35c-2.72,0-5.06,1.49-6.99,4.38l-9.9,14.4c-4.06,6.19-1.81,10.3.78,12.54,5.33,4.79,11.59,8.43,18.38,10.7,7.57,2.57,15.53,3.85,23.52,3.78,14.3,0,26.23-3.83,35.42-11.51,9.19-7.69,15.83-18.06,19.94-31.05l45.81-147.77c1.02-2.53,1.06-5.35.1-7.91-.77-1.61-2.62-3.55-6.83-3.55"/>
    </g>
    <g>
      <path d="M650.17,503.59h12.77l13.48,34.99,13.19-34.99h12.63v51.27h-9.54v-38.71l-15.26,38.71h-3.09l-15.55-38.71v38.71h-8.62v-51.27Z"/>
      <path d="M717.79,503.59h9.61v51.27h-9.61v-51.27Z"/>
      <path d="M740.5,529.55v-.58c0-15.41,10.6-26.16,24.88-26.16,11.76,0,20.86,5.87,22,17.92h-9.68c-1.07-6.81-4.88-10.33-12.25-10.33-9.03,0-14.92,7.03-14.92,18.5v.58c0,11.54,5.53,18.35,14.99,18.35,7.1,0,12.1-3.58,13.12-10.82h9.32c-1.5,12.32-10.26,18.57-22.44,18.57-16.06,0-25.02-10.26-25.02-26.03Z"/>
      <path d="M799.71,503.59h17.22c11.25,0,19.15,4.59,19.15,15.07v.29c0,8.02-5.02,12.1-11.4,13.77l14.4,22.15h-10.32l-13.4-20.72h-6.11v20.72h-9.54v-51.27ZM816.93,527.33c6.38,0,9.76-2.73,9.76-8.17v-.29c0-5.89-3.67-7.89-9.76-7.89h-7.68v16.35h7.68Z"/>
      <path d="M846.92,529.55v-.58c0-14.98,10.75-26.09,25.94-26.09s25.81,10.82,25.81,25.87v.58c0,14.99-10.26,26.25-25.81,26.25s-25.94-11.25-25.94-26.03ZM888.77,529.41v-.58c0-10.53-5.87-18.35-15.92-18.35s-15.99,7.39-15.99,18.43v.58c0,11.18,6.81,18.43,16.13,18.43s15.77-7.39,15.77-18.5Z"/>
      <path d="M911.37,503.59h31.78v7.61h-22.24v15.26h17.5v7.39h-17.5v21.01h-9.54v-51.27Z"/>
      <path d="M955.27,503.59h9.61v51.27h-9.61v-51.27Z"/>
      <path d="M980.56,503.59h11.4l21.59,37.07v-37.07h8.67v51.27h-9.88l-23.09-39.29v39.29h-8.69v-51.27Z"/>
      <path d="M1050.69,503.59h12.46l16.93,51.27h-9.9l-4.08-12.68h-19.58l-4.01,12.68h-8.96l17.14-51.27ZM1048.75,535.22h15.12l-7.53-23.81-7.59,23.81Z"/>
      <path d="M1091.42,503.59h11.4l21.59,37.07v-37.07h8.67v51.27h-9.88l-23.09-39.29v39.29h-8.69v-51.27Z"/>
      <path d="M1145.8,529.55v-.58c0-15.41,10.6-26.16,24.88-26.16,11.76,0,20.86,5.87,22,17.92h-9.68c-1.07-6.81-4.88-10.33-12.25-10.33-9.03,0-14.92,7.03-14.92,18.5v.58c0,11.54,5.53,18.35,14.99,18.35,7.1,0,12.1-3.58,13.12-10.82h9.32c-1.5,12.32-10.26,18.57-22.44,18.57-16.06,0-25.02-10.26-25.02-26.03Z"/>
      <path d="M1205.02,503.59h32.05v7.53h-22.51v14.05h18.06v7.17h-18.06v14.98h23.74v7.53h-33.28v-51.27Z"/>
      <path d="M1271.04,503.59h18.35c10.55,0,16.78,4.03,16.78,13.35v.27c0,5.09-2.29,9.1-8.09,10.91,6.95,1.5,10.24,5.29,10.24,12.1v.29c0,9.54-6.3,14.34-17.56,14.34h-19.73v-51.27ZM1288.26,525.18c6.3,0,8.74-2.29,8.74-7.53v-.29c0-4.88-2.8-6.95-8.89-6.95h-7.75v14.78h7.89ZM1289.61,548.05c6.39,0,9.32-2.87,9.32-8.17v-.29c0-5.31-2.93-7.97-9.95-7.97h-8.62v16.42h9.25Z"/>
      <path d="M1333.31,503.59h12.46l16.93,51.27h-9.9l-4.08-12.68h-19.56l-4.03,12.68h-8.96l17.14-51.27ZM1331.38,535.22h15.12l-7.53-23.81-7.59,23.81Z"/>
      <path d="M1374.03,503.59h11.4l21.59,37.07v-37.07h8.67v51.27h-9.88l-23.09-39.29v39.29h-8.69v-51.27Z"/>
      <path d="M1430.97,503.59h9.54v23.23l19.65-23.23h10.24l-21.23,24.46,22.31,26.81h-11.25l-19.73-23.95v23.95h-9.54v-51.27Z"/>
      <path d="M1502.36,503.59h9.54v43.66h21.88v7.61h-31.41v-51.27Z"/>
      <path d="M1545.7,503.59h9.61v51.27h-9.61v-51.27Z"/>
      <path d="M1570.97,503.59h12.77l13.48,34.99,13.19-34.99h12.63v51.27h-9.54v-38.71l-15.26,38.71h-3.09l-15.55-38.71v38.71h-8.62v-51.27Z"/>
      <path d="M1638.59,503.59h9.61v51.27h-9.61v-51.27Z"/>
      <path d="M1674.12,511.13h-14.27v-7.53h38.15v7.53h-14.27v43.73h-9.61v-43.73Z"/>
      <path d="M1709.21,503.59h32.05v7.53h-22.51v14.05h18.06v7.17h-18.06v14.98h23.74v7.53h-33.28v-51.27Z"/>
      <path d="M1754.62,503.59h15.57c17.85,0,26.52,10.19,26.52,25.09v.65c0,14.92-8.67,25.53-26.66,25.53h-15.43v-51.27ZM1769.76,547.33c11.47,0,16.98-6.59,16.98-17.92v-.58c0-11.04-5-17.7-17.05-17.7h-5.53v36.2h5.6Z"/>
    </g>
  </g>
</svg>